<svg width="828" height="194" viewBox="0 0 828 194" fill="none" xmlns="http://www.w3.org/2000/svg">
<path d="M334.084 155L309.378 28.7634H326.149L342.92 114.063L359.692 28.7634H376.463L393.054 114.063L409.826 28.7634H426.597L401.891 155H384.398L367.987 71.3231L351.577 155H334.084ZM440.134 155C436.527 155 433.401 153.738 430.756 151.213C428.232 148.688 426.969 145.562 426.969 141.835V114.604C426.969 110.998 428.232 107.932 430.756 105.407C433.401 102.762 436.527 101.44 440.134 101.44H454.2C456.124 101.44 457.687 100.838 458.889 99.6362C460.212 98.3137 460.873 96.7508 460.873 94.9474V88.2749C460.873 86.4715 460.212 84.9687 458.889 83.7665C457.687 82.444 456.124 81.7828 454.2 81.7828H434.724L438.511 64.831H464.66C468.267 64.831 471.332 66.1535 473.857 68.7984C476.502 71.3231 477.825 74.3889 477.825 77.9957V155H440.134ZM450.413 138.048H460.873V118.391H450.413C448.61 118.391 447.047 119.053 445.724 120.375C444.522 121.577 443.921 123.08 443.921 124.884V131.556C443.921 133.359 444.522 134.922 445.724 136.245C447.047 137.447 448.61 138.048 450.413 138.048ZM490.545 155V23.8942L507.497 20.1071V155H490.545ZM521.893 155V23.8942L538.845 20.1071V155H521.893ZM551.48 40.6657V23.7139L568.432 19.7465V36.6982L551.48 40.6657ZM551.841 155V68.7984L568.792 64.831V155H551.841ZM580.245 155V64.831H617.936C621.423 64.831 624.488 66.0933 627.133 68.6181C629.778 71.1428 631.101 74.2086 631.101 77.8153V155H614.149V88.2749C614.149 86.3513 613.488 84.7884 612.165 83.5861C610.843 82.3839 609.34 81.7828 607.657 81.7828H597.197V155H580.245ZM655.694 155C652.087 155 648.962 153.738 646.317 151.213C643.792 148.568 642.53 145.442 642.53 141.835V77.8153C642.53 74.2086 643.792 71.1428 646.317 68.6181C648.962 66.0933 652.087 64.831 655.694 64.831H680.22C683.947 64.831 687.073 66.0933 689.598 68.6181C692.123 71.1428 693.385 74.2086 693.385 77.8153V105.227C693.385 108.833 692.123 111.959 689.598 114.604C687.073 117.129 683.947 118.391 680.22 118.391H659.481V131.556C659.481 133.359 660.082 134.922 661.285 136.245C662.607 137.447 664.23 138.048 666.154 138.048H689.598L693.385 155H655.694ZM659.481 101.44H669.941C671.744 101.44 673.247 100.838 674.449 99.6362C675.772 98.3137 676.433 96.7508 676.433 94.9474V88.2749C676.433 86.4715 675.772 84.9687 674.449 83.7665C673.247 82.444 671.744 81.7828 669.941 81.7828H666.154C664.23 81.7828 662.607 82.444 661.285 83.7665C660.082 84.9687 659.481 86.4715 659.481 88.2749V101.44ZM715.572 155C711.965 155 708.839 153.738 706.195 151.213C703.67 148.568 702.407 145.442 702.407 141.835V77.8153C702.407 74.2086 703.67 71.1428 706.195 68.6181C708.839 66.0933 711.965 64.831 715.572 64.831H740.098C743.825 64.831 746.951 66.0933 749.476 68.6181C752 71.1428 753.263 74.2086 753.263 77.8153V105.227C753.263 108.833 752 111.959 749.476 114.604C746.951 117.129 743.825 118.391 740.098 118.391H719.359V131.556C719.359 133.359 719.96 134.922 721.163 136.245C722.485 137.447 724.108 138.048 726.032 138.048H749.476L753.263 155H715.572ZM719.359 101.44H729.819C731.622 101.44 733.125 100.838 734.327 99.6362C735.65 98.3137 736.311 96.7508 736.311 94.9474V88.2749C736.311 86.4715 735.65 84.9687 734.327 83.7665C733.125 82.444 731.622 81.7828 729.819 81.7828H726.032C724.108 81.7828 722.485 82.444 721.163 83.7665C719.96 84.9687 719.359 86.4715 719.359 88.2749V101.44ZM760.524 155L777.476 109.915L760.524 64.831H777.476L785.952 87.3732L794.428 64.831H811.199L794.428 109.915L811.199 155H794.428L785.952 132.458L777.476 155H760.524Z" fill="black"/>
<path fill-rule="evenodd" clip-rule="evenodd" d="M229.812 21.1019H227.602C215.969 21.0837 206.53 30.5056 206.53 42.1379V89.1836C206.53 98.5783 198.766 106.188 189.525 106.188C184.035 106.188 178.554 103.425 175.302 98.7867L127.25 30.1613C123.264 24.4629 116.778 21.0656 109.756 21.0656C98.8037 21.0656 88.947 30.3787 88.947 41.8752V89.1927C88.947 98.5874 81.2464 106.197 71.9424 106.197C66.4342 106.197 60.9623 103.434 57.71 98.7957L3.94208 22.0078C2.72815 20.2775 0.0012207 21.129 0.0012207 23.2489V64.2792C0.0012207 66.3538 0.635376 68.3651 1.8222 70.0682L54.7294 145.633C57.855 150.099 62.4662 153.415 67.7841 154.62C81.0924 157.646 93.3408 147.4 93.3408 134.345V87.0547C93.3408 77.66 100.951 70.0501 110.345 70.0501H110.372C116.035 70.0501 121.344 72.8132 124.596 77.4516L172.647 146.068C176.642 151.775 182.794 155.164 190.132 155.164C201.329 155.164 210.923 145.841 210.923 134.354V87.0456C210.923 77.651 218.533 70.041 227.928 70.041H229.803C230.981 70.041 231.932 69.0898 231.932 67.9121V23.2218C231.932 22.044 230.981 21.0928 229.803 21.0928L229.812 21.1019Z" fill="#0B100F"/>
</svg>
